<?xml version="1.0" encoding="utf-8"?>
<!-- Generator: Adobe Illustrator 25.2.1, SVG Export Plug-In . SVG Version: 6.00 Build 0)  -->
<svg version="1.1" id="Layer_1" xmlns="http://www.w3.org/2000/svg" xmlns:xlink="http://www.w3.org/1999/xlink" x="0px" y="0px"
	 viewBox="0 0 16 16" style="enable-background:new 0 0 16 16;" xml:space="preserve">
<style type="text/css">
	.st0{fill:#9A4993;}
	.st1{fill:#6A1577;}
	.st2{fill:#813084;}
	.st3{fill:#FFFFFF;}
</style>
<g>
	<path class="st0" d="M15.1,4.7c0-0.3-0.1-0.5-0.2-0.7c-0.1-0.2-0.3-0.4-0.5-0.5c-1.9-1.1-3.8-2.2-5.7-3.3c-0.5-0.3-1-0.3-1.5,0
		C6.5,0.7,2.7,2.8,1.6,3.5C1.1,3.8,0.9,4.2,0.9,4.7v6.6c0,0.3,0.1,0.5,0.2,0.7c0.1,0.2,0.3,0.4,0.5,0.5c1.1,0.7,4.9,2.8,5.7,3.3
		c0.5,0.3,1,0.3,1.5,0c1.9-1.1,3.8-2.2,5.7-3.3c0.2-0.1,0.4-0.3,0.5-0.5c0.1-0.2,0.2-0.4,0.2-0.7L15.1,4.7z"/>
	<path class="st1" d="M8,8l-7,4c0.1,0.2,0.3,0.4,0.5,0.5c1.1,0.7,4.9,2.8,5.7,3.3c0.5,0.3,1,0.3,1.5,0c1.9-1.1,3.8-2.2,5.7-3.3
		c0.2-0.1,0.4-0.3,0.5-0.5L8,8z"/>
	<path class="st1" d="M6,9.2c0.4,0.7,1.2,1.2,2,1.2c0.9,0,1.6-0.5,2.1-1.2L8,8L6,9.2z"/>
	<path class="st2" d="M15.1,4.7c0-0.3-0.1-0.5-0.2-0.7L8,8l6.9,4c0.1-0.2,0.2-0.4,0.2-0.7V4.7z"/>
	<g>
		<path class="st3" d="M10,9.1C9.6,9.9,8.9,10.3,8,10.3c-0.9,0-1.6-0.5-2-1.2C5.8,8.8,5.6,8.4,5.6,8c0-1.3,1.1-2.4,2.4-2.4
			c0.9,0,1.6,0.5,2,1.2l2.1-1.2C11.3,4.2,9.7,3.3,8,3.3C5.4,3.3,3.3,5.4,3.3,8c0,0.9,0.2,1.7,0.6,2.4c0.8,1.4,2.3,2.4,4.1,2.4
			c1.8,0,3.3-1,4.1-2.4L10,9.1z M12.6,6.9h-0.5v2.3h0.5V6.9z M13.7,6.9h-0.5v2.3h0.5V6.9z"/>
		<path class="st3" d="M14.1,7.3h-2.3v0.5h2.3L14.1,7.3z M14.1,8.3h-2.3v0.5h2.3L14.1,8.3z"/>
	</g>
</g>
</svg>
